<svg width="149" height="92" viewBox="0 0 149 92" fill="none" xmlns="http://www.w3.org/2000/svg">
<path d="M147.341 49.558C139.266 62.9496 131.194 76.3413 123.118 89.7348C120.283 94.4398 113.776 89.9132 116.653 85.1415C123.629 73.571 130.605 62.0024 137.579 50.4319C92.9781 50.7638 48.38 51.0956 3.77882 51.4275C-1.03867 51.4634 -1.06891 42.2712 3.74858 42.2354C48.3497 41.9035 92.9479 41.5716 137.549 41.2398C130.497 29.7736 123.445 18.3057 116.395 6.84142C113.487 2.11458 119.962 -2.50855 122.83 2.15214C130.992 15.4248 139.152 28.6957 147.316 41.9665C149.281 43.6929 149.294 47.8043 147.341 49.558Z" fill="black"/>
</svg>
