<svg width="10" height="7" viewBox="0 0 10 7" fill="none" xmlns="http://www.w3.org/2000/svg">
<path d="M1.15063 6.99999H8.3254C8.95987 6.99999 9.47602 6.48384 9.47602 5.84937V5.11327C9.47602 5.01982 9.40026 4.94405 9.30681 4.94405C9.21336 4.94405 9.13759 5.01982 9.13759 5.11327V5.84937C9.13759 6.29719 8.77322 6.66157 8.3254 6.66157H1.15063C0.702803 6.66157 0.338429 6.29719 0.338429 5.84937V2.38123L3.9668 4.29595C4.24664 4.44409 4.55178 4.51796 4.85674 4.51796C5.177 4.51796 5.497 4.43641 5.78685 4.27381L9.1376 2.39932V4.09798C9.1376 4.19143 9.21336 4.26719 9.30681 4.26719C9.40026 4.26719 9.47602 4.19143 9.47602 4.09798V1.65618C9.47602 1.02171 8.95987 0.505554 8.3254 0.505554H1.15063C0.516154 0.505554 0 1.02171 0 1.65618V5.84937C0 6.48384 0.516154 6.99999 1.15063 6.99999ZM1.15063 0.843984H8.3254C8.77322 0.843984 9.13759 1.20836 9.13759 1.65618V2.01157L5.62143 3.97859C5.15626 4.2396 4.5968 4.24662 4.12494 3.99676L0.338429 1.9986V1.65618C0.338429 1.20836 0.702803 0.843984 1.15063 0.843984Z" fill="#8B8B8B"/>
</svg>
