<svg width="19" height="19" viewBox="0 0 19 19" fill="none" xmlns="http://www.w3.org/2000/svg">
<path d="M18.8457 18.0995C19.0515 18.3053 19.0515 18.6398 18.8457 18.8456C18.7428 18.9485 18.6072 19 18.4726 19C18.338 19 18.2024 18.9485 18.0995 18.8456L9.50002 10.2461L0.900551 18.8456C0.797633 18.9485 0.662058 19 0.527464 19C0.392869 19 0.257307 18.9485 0.154376 18.8456C-0.0514588 18.6398 -0.0514588 18.3053 0.154376 18.0995L8.75385 9.5L0.154376 0.900526C-0.0514588 0.69469 -0.0514588 0.360211 0.154376 0.154376C0.360211 -0.0514588 0.69469 -0.0514588 0.900525 0.154376L9.5 8.75385L18.0995 0.154376C18.3053 -0.0514588 18.6398 -0.0514588 18.8456 0.154376C19.0515 0.360211 19.0515 0.69469 18.8456 0.900526L10.2461 9.5L18.8457 18.0995Z" fill="black"/>
</svg>
