<svg width="438" height="228" viewBox="0 0 438 228" fill="none" xmlns="http://www.w3.org/2000/svg">
<path d="M123.825 195.742L84.7299 195.82L64.0482 195.914V227.751H374.151V195.899L123.825 195.742ZM85.6373 157.335L62.1707 106.945L96.1503 135.073L98.7473 131.287L158.618 43.8355L219.084 131.538C219.084 131.538 272.947 54.0669 279.096 45.2591L342.095 135.511L373.901 109.683L352.562 157.335H85.6373ZM421.788 31.1792L347.321 91.0815L288.686 0.625776L265.501 0L264.249 2.14328L218.552 79.6142L171.65 0.578842H149.028L90.3775 91.0502L16.5987 31.32L0 47.3711L64.0169 185.542H372.602L437.057 47.5119L421.788 31.1792Z" fill="black"/>
</svg>
