<svg width="10" height="12" viewBox="0 0 10 12" fill="none" xmlns="http://www.w3.org/2000/svg">
<path d="M9.42859 10.7143C9.42966 11.1696 9.10502 11.5613 8.65716 11.6437C7.35592 11.88 6.03651 11.9995 4.71433 12C3.39326 11.9995 2.07434 11.8811 0.77464 11.6454C0.324649 11.5639 -0.00161229 11.1713 5.99344e-06 10.7143C0.00107735 9.57804 0.45322 8.48889 1.25679 7.68537C2.06036 6.8818 3.14949 6.42967 4.28571 6.42858H5.14285C6.2791 6.42966 7.36826 6.8818 8.17178 7.68537C8.97535 8.48894 9.42751 9.57807 9.42859 10.7143ZM4.71433 6.00003C5.50986 6.00003 6.27322 5.68396 6.83578 5.12147C7.39834 4.55898 7.71434 3.79558 7.71434 3.00001C7.71434 2.20445 7.39827 1.44112 6.83578 0.878561C6.27329 0.316003 5.50989 0 4.71433 0C3.91876 0 3.15543 0.316072 2.59287 0.878561C2.03031 1.44105 1.71431 2.20445 1.71431 3.00001C1.71538 3.79555 2.03145 4.55781 2.59396 5.12037C3.15646 5.68287 3.91879 5.99894 4.71433 6.00003Z" fill="black"/>
</svg>
