<svg width="20" height="20" viewBox="0 0 20 20" fill="none" xmlns="http://www.w3.org/2000/svg">
<circle cx="10" cy="10" r="10" fill="white"/>
<path d="M12.6769 15.2772C12.7324 15.3317 12.7766 15.3965 12.8069 15.4681C12.8372 15.5397 12.853 15.6166 12.8534 15.6944C12.8538 15.7721 12.8387 15.8491 12.8092 15.921C12.7796 15.9929 12.7361 16.0583 12.6811 16.1132C12.6261 16.1682 12.5608 16.2117 12.4889 16.2413C12.417 16.2709 12.34 16.2859 12.2622 16.2855C12.1845 16.2851 12.1076 16.2693 12.036 16.239C11.9644 16.2087 11.8995 16.1645 11.8451 16.109L6.05464 10.3192C6.00001 10.2646 5.95668 10.1997 5.92711 10.1284C5.89754 10.057 5.88232 9.98054 5.88232 9.9033C5.88232 9.82606 5.89754 9.74957 5.92711 9.67821C5.95668 9.60686 6.00001 9.54202 6.05464 9.48742L11.8451 3.69751C11.9558 3.58905 12.1048 3.52864 12.2597 3.52943C12.4147 3.53021 12.5631 3.59212 12.6727 3.70169C12.7822 3.81127 12.8441 3.95966 12.8449 4.11462C12.8457 4.26959 12.7853 4.4186 12.6768 4.52928L7.30234 9.90328L12.6769 15.2772Z" fill="#3F3F3F"/>
</svg>
