<svg width="407" height="305" viewBox="0 0 407 305" fill="none" xmlns="http://www.w3.org/2000/svg">
<path d="M351.274 97.5012H133.765C101.514 97.5012 78.8291 122.295 78.8291 151.408C78.8291 180.459 102.872 205.919 133.765 205.919C165.615 205.919 399.757 205.919 399.757 205.919V222.053C399.757 222.053 173.873 222.053 133.497 222.053C90.6468 222.053 61.8267 189.257 61.8267 151.542C61.8267 113.819 90.7768 81.1909 133.383 81.1909C190.481 81.1909 334.528 81.1909 334.528 81.1909V59.1738H61.8267V222.053H43.9196V42.8639H351.274V97.5012Z" fill="#FF5A00"/>
<path d="M117.038 179.331H399.757V163.055H133.765V141.015C133.765 141.015 292.408 141.015 334.97 141.015C377.575 141.015 406.523 108.41 406.523 70.6757C406.523 32.9492 376.827 0 333.961 0C291.102 0 0 0 0 0V222.053H17.9283V16.333C17.9283 16.333 303.617 16.333 334.528 16.333C365.497 16.333 389.661 41.7735 389.661 70.8441C389.661 99.9187 366.8 124.705 334.528 124.705C302.284 124.705 117.038 124.705 117.038 124.705L117.038 179.331Z" fill="#FF5A00"/>
<path d="M186.729 304.053C186.706 304.17 186.7 304.286 186.7 304.4Z" fill="#FF5A00"/>
</svg>
