<svg width="566" height="566" viewBox="0 0 566 566" fill="none" xmlns="http://www.w3.org/2000/svg">
<path d="M474.423 474.392C424.28 524.55 353.809 553.741 282.9 553.741C211.992 553.741 141.52 524.55 91.393 474.392C41.2657 424.265 12.0755 353.809 12.0755 282.916C12.0755 211.992 41.2657 141.536 91.393 91.4086C141.52 41.2813 211.992 12.0911 282.9 12.0911C353.809 12.0911 424.28 41.2813 474.423 91.4086C524.55 141.536 553.741 211.992 553.741 282.916C553.741 353.793 524.55 424.265 474.423 474.392ZM482.941 82.8591C430.568 30.5007 356.96 0 282.9 0C208.84 0 135.233 30.5007 82.8747 82.8591C30.5007 135.217 0 208.84 0 282.916C0 356.96 30.5007 430.568 82.8747 482.926C135.233 535.3 208.84 565.8 282.9 565.8C356.976 565.8 430.568 535.331 482.941 482.926C535.3 430.568 565.8 356.96 565.8 282.916C565.8 208.84 535.3 135.217 482.941 82.8591Z" fill="#273691"/>
<path d="M267.346 273.914V291.871L282.9 300.858L298.455 291.871V273.914L282.9 264.927L267.346 273.914ZM296.427 230.885V192.724C296.406 189.141 294.984 185.708 292.464 183.161C289.968 180.649 286.442 179.213 282.9 179.213C279.359 179.213 275.848 180.664 273.352 183.161C270.828 185.705 269.405 189.14 269.389 192.724V230.885L282.916 238.686L296.427 230.885ZM198.029 316.272C194.941 318.077 192.68 321.015 191.726 324.462C190.814 327.925 191.308 331.608 193.099 334.708C194.89 337.809 197.834 340.076 201.289 341.016C204.756 341.918 208.437 341.437 211.555 339.674L244.599 320.593V304.992L231.072 297.191L198.029 316.272ZM367.756 316.272L334.712 297.191L321.186 304.992V320.624L354.23 339.705C357.344 341.478 361.03 341.96 364.496 341.047C367.952 340.104 370.9 337.84 372.702 334.744C374.473 331.633 374.948 327.95 374.022 324.492C373.096 321.034 370.845 318.081 367.756 316.272Z" fill="#273691"/>
<path d="M473.22 402.815C472.437 403.179 471.56 403.294 470.709 403.143L411.298 392.019C409.831 391.743 408.495 390.991 407.497 389.88C406.498 388.769 405.894 387.361 405.776 385.872C405.417 381.596 403.774 377.529 401.064 374.202C398.321 370.907 394.637 368.527 390.506 367.382C386.374 366.236 381.991 366.378 377.943 367.79C370.706 370.34 363.003 371.294 355.363 370.586C347.722 369.877 340.326 367.524 333.681 363.687L316.083 353.561V469.152H291.292V339.239L277.766 331.439L264.24 339.239V469.152H239.465V353.561L221.851 363.687C215.208 367.529 207.811 369.885 200.17 370.594C192.529 371.302 184.825 370.345 177.589 367.79C174.566 366.72 171.336 366.36 168.151 366.738C164.966 367.116 161.91 368.222 159.221 369.97C156.532 371.718 154.281 374.062 152.642 376.819C151.004 379.577 150.022 382.674 149.772 385.872C149.655 387.359 149.052 388.765 148.057 389.876C147.062 390.987 145.73 391.74 144.265 392.019L84.8391 403.143C84.206 403.254 83.5558 403.219 82.9383 403.041C82.3208 402.862 81.7523 402.545 81.2765 402.112C80.8006 401.68 80.43 401.145 80.193 400.547C79.956 399.95 79.8588 399.306 79.9091 398.665C79.9903 397.803 80.3332 396.986 80.8919 396.325L120.223 350.457C121.187 349.318 122.502 348.53 123.961 348.217C125.42 347.903 126.942 348.082 128.289 348.725C132.143 350.55 136.542 351.159 140.739 350.457C144.936 349.755 148.898 347.742 151.941 344.762C154.983 341.798 157.074 337.851 157.869 333.67C159.268 326.123 162.289 318.97 166.723 312.704C171.157 306.439 176.898 301.211 183.549 297.381L201.163 287.24L101.033 229.437L113.421 207.985L225.938 272.949L239.465 265.148V249.531L126.947 184.567L139.319 163.115L239.449 220.918V200.558C239.449 192.929 241.118 185.285 244.301 178.326C247.515 171.384 252.211 165.143 258.015 160.166C261.262 157.363 263.576 153.635 264.646 149.48C265.717 145.326 265.493 140.944 264.006 136.92C262.485 132.913 259.788 129.459 256.267 127.013C255.044 126.159 254.133 124.929 253.671 123.51C253.21 122.092 253.223 120.561 253.709 119.15L273.788 62.1428C274.079 61.3284 274.614 60.6234 275.321 60.1238C276.027 59.6241 276.87 59.354 277.735 59.3502C278.6 59.354 279.443 59.6241 280.149 60.1238C280.855 60.6234 281.39 61.3284 281.682 62.1428L301.777 119.15C302.263 120.561 302.276 122.092 301.814 123.51C301.352 124.929 300.441 126.159 299.218 127.013C295.692 129.456 292.997 132.92 291.497 136.938C289.996 140.957 289.762 145.339 290.824 149.495C291.885 153.614 294.241 157.389 297.471 160.166C303.293 165.165 307.968 171.361 311.175 178.332C314.381 185.303 316.045 192.885 316.052 200.558V220.903L416.182 163.1L428.569 184.551L316.052 249.516V265.133L329.578 272.933L442.096 207.969L454.483 229.421L354.369 287.224L371.983 297.365C378.624 301.21 384.357 306.443 388.791 312.705C393.225 318.968 396.257 326.113 397.678 333.654C398.459 337.835 400.565 341.782 403.591 344.747C406.634 347.727 410.612 349.739 414.793 350.441C419.006 351.143 423.405 350.535 427.243 348.709C428.591 348.069 430.112 347.892 431.57 348.205C433.029 348.518 434.343 349.304 435.309 350.441L474.64 396.309C475.196 396.969 475.537 397.784 475.615 398.643C475.693 399.503 475.505 400.365 475.077 401.115C474.661 401.87 474.009 402.467 473.22 402.815ZM447.665 117.278C403.186 72.783 340.671 46.9003 277.75 46.9003C214.846 46.9003 152.331 72.7986 107.836 117.278C63.3404 161.773 37.4576 224.288 37.4576 287.209C37.4576 350.098 63.3404 412.644 107.836 457.139C152.331 501.603 214.846 527.501 277.75 527.501C340.655 527.501 403.186 501.603 447.665 457.139C492.161 412.644 518.059 350.129 518.059 287.209C518.059 224.288 492.161 161.773 447.665 117.278Z" fill="#273691"/>
</svg>
