<svg width="736" height="561" viewBox="0 0 736 561" fill="none" xmlns="http://www.w3.org/2000/svg">
<path d="M680.778 440.075L671.579 440.995C671.579 440.995 275.071 531.152 0 538.511V560.816L680.778 548.631C680.778 548.631 703.778 548.631 719.418 532.072C719.418 532.072 735.977 516.432 735.977 494.353C735.977 494.353 735.977 471.354 719.418 455.714C719.418 455.714 703.778 440.075 680.778 440.075Z" fill="#B3004C"/>
<path d="M577.084 318.682C577.084 318.682 438.168 392.279 248.654 455.757L87.6593 504.516L83.0594 509.116L87.6593 511.876L251.414 485.196C251.414 485.196 449.208 450.237 618.483 407.919L627.682 404.239L644.242 391.359C644.242 391.359 658.041 375.72 656.201 355.48C656.201 355.48 654.361 335.241 637.802 321.442C637.802 321.442 620.323 306.722 596.403 311.322L577.084 318.682ZM506.116 214.988C506.116 214.988 399.399 315.265 256.803 398.062L136.287 460.62L133.527 465.22L138.127 467.06L261.403 425.661C261.403 425.661 414.119 366.783 563.154 283.066C563.154 283.066 576.033 277.546 582.473 261.907C582.473 261.907 589.833 244.427 582.473 227.868C582.473 227.868 575.113 210.388 557.634 203.028C557.634 203.028 538.04 194.494 520.835 203.948L506.116 214.988ZM489.677 101.37C489.677 101.37 471.278 97.6899 457.478 107.81L446.439 119.769C446.439 119.769 357.202 250.405 260.605 342.402L180.567 407.72L178.727 413.24L184.247 414.16L277.164 358.962C277.164 358.962 392.161 281.684 505.317 170.368C505.317 170.368 515.437 161.168 518.197 149.208C518.197 149.208 522.796 133.569 514.517 119.769C514.517 119.769 506.237 105.97 489.677 101.37ZM253.562 325.67C253.562 325.67 371.319 202.394 453.196 58.8781C453.196 58.8781 460.556 49.6784 460.556 36.7988C460.556 36.7988 460.556 21.1593 449.516 11.0397C449.516 11.0397 438.476 0 421.917 0C421.917 0 403.518 0 393.398 13.7996L386.038 27.5991C386.038 27.5991 341.879 182.154 248.962 321.07L248.042 325.67H253.562Z" fill="#B3004C"/>
</svg>
