<svg width="20" height="18" viewBox="0 0 20 18" fill="none" xmlns="http://www.w3.org/2000/svg">
<path fill-rule="evenodd" clip-rule="evenodd" d="M14.5352 14.3762C13.6135 14.3762 12.8653 15.188 12.8653 16.1881C12.8653 17.1882 13.6135 18 14.5352 18C15.4569 18 16.2052 17.1882 16.2052 16.1881C16.2052 15.188 15.4569 14.3762 14.5352 14.3762ZM8.44116 14.3762C7.51943 14.3762 6.77122 15.188 6.77122 16.1881C6.77122 17.1882 7.51943 18 8.44116 18C9.36288 18 10.1111 17.1882 10.1111 16.1881C10.1111 15.188 9.36288 14.3762 8.44116 14.3762ZM14.5352 15.1108C15.0828 15.1108 15.528 15.5939 15.528 16.1881C15.528 16.7822 15.0828 17.2653 14.5352 17.2653C13.9876 17.2653 13.5424 16.7822 13.5424 16.1881C13.5424 15.5939 13.9876 15.1108 14.5352 15.1108ZM8.44116 15.1108C8.98877 15.1108 9.43398 15.5939 9.43398 16.1881C9.43398 16.7822 8.98877 17.2653 8.44116 17.2653C7.89355 17.2653 7.44834 16.7822 7.44834 16.1881C7.44834 15.5939 7.89355 15.1108 8.44116 15.1108ZM5.76476 11.5227H17.0448C17.1954 11.5227 17.3275 11.4153 17.369 11.2592L19.6228 2.93967C19.6525 2.82855 19.633 2.70916 19.5687 2.61549C19.5052 2.52274 19.4045 2.46856 19.2978 2.46856H4.5451L4.25564 0.314071C4.23109 0.133154 4.0889 0 3.92046 0H0.338559C0.151505 0 0 0.164387 0 0.367345C0 0.570302 0.151505 0.734689 0.338559 0.734689H3.62773L5.36622 13.645C5.38992 13.8259 5.53296 13.9591 5.70055 13.9591H17.9437C18.1308 13.9591 18.2823 13.7947 18.2823 13.5917C18.2823 13.3888 18.1308 13.2244 17.9437 13.2244H5.99437L5.76476 11.5227ZM18.8458 3.20324L16.7916 10.7881H5.66649L4.66182 3.20324H18.8458Z" fill="#2A282F"/>
</svg>
