<svg width="17" height="19" viewBox="0 0 17 19" fill="none" xmlns="http://www.w3.org/2000/svg">
<path d="M5.86077 0C9.10284 0 11.7214 3.03579 11.7214 6.79438C11.7214 10.553 9.10284 13.5888 5.86077 13.5888C2.6187 13.5888 9.91821e-05 10.553 9.91821e-05 6.79438C9.91821e-05 3.06412 2.64314 0 5.86077 0ZM5.86077 12.7214C8.67913 12.7214 10.9733 10.0617 10.9733 6.79438C10.9733 3.52701 8.67908 0.867368 5.86077 0.867368C3.04241 0.867368 0.74827 3.52706 0.74827 6.79438C0.74827 10.0606 3.04246 12.7214 5.86077 12.7214Z" fill="#3E3E3E"/>
<path d="M10.5942 10.309L16.3302 16.9588C16.5299 17.1903 16.5299 17.537 16.3302 17.7686L16.1558 17.9707C15.9561 18.2022 15.657 18.2022 15.4573 17.9707L9.72136 11.3209C10.0458 11.0318 10.3448 10.6851 10.5942 10.309Z" fill="#3E3E3E"/>
</svg>
