<svg width="30" height="24" viewBox="0 0 30 24" fill="none" xmlns="http://www.w3.org/2000/svg">
<path d="M14.5372 24C14.3061 24 14.0818 23.9116 13.9187 23.7485L2.02897 11.8452C-0.676324 9.13989 -0.676324 4.73515 2.02897 2.02999C4.73427 -0.676663 9.13901 -0.676663 11.8442 2.02999L14.54 4.72578L17.2358 2.02999C19.9424 -0.675306 24.3458 -0.675306 27.0523 2.02999C29.759 4.73664 29.759 9.14003 27.0523 11.8452L19.3496 19.5559C19.0098 19.8958 18.4592 19.8958 18.1193 19.5559C17.7794 19.216 17.7794 18.6655 18.1193 18.3256L25.822 10.6149C26.8049 9.63199 27.346 8.32556 27.346 6.9363C27.346 5.54694 26.8049 4.24186 25.8234 3.25913C23.7951 1.23083 20.4956 1.23219 18.4673 3.25913L15.157 6.57074C14.8308 6.89701 14.253 6.89701 13.9267 6.57074L10.6151 3.25913C8.58681 1.23083 5.28727 1.23083 3.2604 3.25913C2.27888 4.242 1.73782 5.54708 1.73782 6.9363C1.73782 8.32566 2.27888 9.63074 3.2604 10.6135L15.0875 22.4541C15.1106 22.4732 15.1324 22.4922 15.1528 22.514C15.4926 22.8538 15.4953 23.4017 15.1555 23.7415C14.9923 23.9047 14.768 23.9998 14.5369 23.9998L14.5372 24Z" fill="black"/>
</svg>
