<svg width="38" height="26" viewBox="0 0 38 26" fill="none" xmlns="http://www.w3.org/2000/svg">
<path d="M0.649942 13.35L12.6499 25.35C12.7499 25.45 12.8799 25.5 12.9999 25.5C13.1199 25.5 13.2599 25.45 13.3499 25.35C13.5499 25.15 13.5499 24.84 13.3499 24.64L2.20994 13.5H36.9999C37.2799 13.5 37.4999 13.28 37.4999 13C37.4999 12.72 37.2799 12.5 36.9999 12.5H2.20994L13.3599 1.34999C13.5599 1.14999 13.5599 0.83999 13.3599 0.63999C13.1599 0.43999 12.8499 0.43999 12.6499 0.63999L0.649942 12.64C0.599942 12.69 0.569941 12.74 0.539941 12.8C0.489941 12.92 0.489941 13.06 0.539941 13.18C0.559941 13.25 0.599942 13.31 0.649942 13.35Z" fill="black"/>
</svg>
