<svg width="20" height="24" viewBox="0 0 20 24" fill="none" xmlns="http://www.w3.org/2000/svg">
<path d="M9.92813 0C8.8824 0 8.15701 0.388887 7.62188 0.796857C7.08674 1.20483 6.71291 1.5927 6.075 1.84686C5.84909 1.92954 5.68541 2.15946 5.68125 2.4H0V3.6H19.8V2.4H14.1188C14.1146 2.15946 13.9509 1.92954 13.725 1.84686C13.0827 1.59162 12.6893 1.20132 12.1594 0.796857C11.6294 0.392397 10.9247 0 9.92813 0ZM9.92813 1.2C10.6445 1.2 10.9754 1.40757 11.4281 1.75311C11.668 1.93617 11.9296 2.17122 12.2531 2.4H7.52813C7.85152 2.16867 8.11317 1.93605 8.35313 1.75311C8.80172 1.41111 9.14483 1.2 9.92813 1.2ZM1.2 4.2C1.2 9.70311 1.2 15.2063 1.2 20.7094C1.2 21.7071 1.45941 22.5657 2.05313 23.1562C2.64684 23.7468 3.50314 24 4.50938 24H15.3094C16.304 24 17.1575 23.7468 17.7469 23.1562C18.3363 22.5657 18.6 21.7071 18.6 20.7094C18.6 15.2063 18.6 9.70311 18.6 4.2C12.5697 4.2 6.37325 4.2 1.2 4.2ZM2.4 5.4H17.4V20.7094C17.4 21.5065 17.2107 21.995 16.9031 22.3031C16.5956 22.6113 16.1026 22.8 15.3094 22.8H4.50938C3.70161 22.8 3.20666 22.6113 2.89688 22.3031C2.58709 21.995 2.4 21.5065 2.4 20.7094V5.4ZM5.1 8.7V19.5H6.3V8.7H5.1ZM9.3 8.7V19.5H10.5V8.7H9.3ZM13.5 8.7V19.5H14.7V8.7H13.5Z" fill="#2A2A2A"/>
</svg>
