<svg width="9" height="9" viewBox="0 0 9 9" fill="none" xmlns="http://www.w3.org/2000/svg">
<path d="M4.4262 0C2.14016 0 0.280395 1.85985 0.280395 4.14581C0.280395 4.84525 0.458068 5.53465 0.794914 6.14549L0.0141171 8.03454C-0.0130313 8.10018 -0.000386721 8.1754 0.0465652 8.22858C0.0823602 8.26921 0.133403 8.29152 0.186026 8.29152C0.20239 8.29152 0.218939 8.28938 0.235117 8.28492L2.31709 7.7148C2.95461 8.09237 3.68204 8.29152 4.4263 8.29152C6.71225 8.29152 8.5721 6.43176 8.5721 4.14571C8.5721 1.85967 6.71216 0 4.4262 0ZM4.4262 7.91972C3.72388 7.91972 3.03801 7.72494 2.44288 7.35639C2.41322 7.33798 2.37929 7.3285 2.34498 7.3285C2.32852 7.3285 2.31206 7.33063 2.29589 7.3351L0.502696 7.82609L1.17323 6.20379C1.19535 6.15024 1.19126 6.08943 1.16216 6.03932C0.82857 5.46548 0.652291 4.81076 0.652291 4.14581C0.652291 2.06486 2.34526 0.371896 4.4262 0.371896C6.50715 0.371896 8.20011 2.06486 8.20011 4.14581C8.20011 6.22675 6.50715 7.91972 4.4262 7.91972Z" fill="#8B8B8B"/>
<path d="M6.18596 5.02783L5.28681 4.55803C5.22433 4.52539 5.14875 4.53088 5.09166 4.57225L4.33355 5.12126C3.90829 4.80552 3.65307 4.52363 3.64842 4.51851C3.64563 4.51535 3.64219 4.51303 3.63922 4.51015C3.63652 4.50745 3.63438 4.50438 3.63141 4.50187C3.62778 4.49871 3.45355 4.34493 3.23301 4.05076L3.79467 3.27517C3.83595 3.21809 3.84153 3.1425 3.8088 3.08002L3.3391 2.18096C3.29168 2.09012 3.17983 2.05489 3.08909 2.10184L2.25697 2.53119C2.17711 2.57238 2.13815 2.6648 2.16437 2.7507C2.54854 4.0092 3.28991 4.69572 3.3788 4.77475C3.47437 4.87972 4.35382 5.81718 5.61622 6.20255C5.63426 6.20804 5.65248 6.21064 5.67052 6.21064C5.73857 6.21064 5.80319 6.17308 5.83573 6.10995L6.26518 5.27793C6.31204 5.187 6.27671 5.07515 6.18596 5.02783ZM2.5676 2.7892L3.09504 2.51706L3.42584 3.15021L3.01025 3.72414C2.85359 3.47125 2.69414 3.15858 2.5676 2.7892ZM5.57782 5.79858C5.23633 5.67864 4.92589 5.5152 4.65849 5.34505L5.21652 4.94089L5.84977 5.2717L5.57782 5.79858Z" fill="#8B8B8B"/>
</svg>
