<svg width="27" height="20" viewBox="0 0 27 20" fill="none" xmlns="http://www.w3.org/2000/svg">
<path d="M0.764059 1.52812H25.7253C26.1471 1.52812 26.4894 1.18633 26.4894 0.764059C26.4894 0.341789 26.1471 0 25.7253 0H0.764059C0.342298 0 0 0.341789 0 0.764059C0 1.18633 0.342298 1.52812 0.764059 1.52812Z" fill="black"/>
<path d="M25.7253 9.23596H0.764059C0.342298 9.23596 0 9.57775 0 10C0 10.4223 0.342298 10.7641 0.764059 10.7641H25.7253C26.1471 10.7641 26.4894 10.4223 26.4894 10C26.4894 9.57775 26.1471 9.23596 25.7253 9.23596Z" fill="black"/>
<path d="M25.7253 18.4719H0.764059C0.342298 18.4719 0 18.8137 0 19.2359C0 19.6582 0.342298 20 0.764059 20H25.7253C26.1471 20 26.4894 19.6582 26.4894 19.2359C26.4894 18.8137 26.1471 18.4719 25.7253 18.4719Z" fill="black"/>
</svg>
